<?xml version="1.0" standalone="no"?>
<!DOCTYPE svg PUBLIC "-//W3C//DTD SVG 20010904//EN"
 "http://www.w3.org/TR/2001/REC-SVG-20010904/DTD/svg10.dtd">
<svg version="1.0" xmlns="http://www.w3.org/2000/svg"
 width="199.000000pt" height="199.000000pt" viewBox="0 0 199.000000 199.000000"
 preserveAspectRatio="xMidYMid meet">

<g transform="translate(0.000000,199.000000) scale(0.100000,-0.100000)"
fill="#000000" stroke="none">
<path d="M743 1965 c-343 -88 -617 -363 -710 -713 -23 -85 -26 -117 -26 -252
0 -135 3 -167 26 -252 94 -352 363 -621 715 -715 85 -23 117 -26 252 -26 135
0 167 3 252 26 352 94 626 368 714 714 20 81 24 119 24 253 0 134 -4 172 -24
253 -88 346 -367 625 -713 713 -82 21 -118 24 -257 24 -136 -1 -175 -5 -253
-25z m107 -522 c0 -5 -31 -20 -68 -36 -85 -34 -131 -65 -62 -41 172 59 388 59
560 0 69 -24 23 7 -62 41 -37 16 -68 31 -68 36 0 28 158 -13 233 -60 52 -32
49 -28 91 -143 47 -128 74 -246 82 -357 l7 -93 -39 -37 c-47 -44 -141 -89
-205 -98 -45 -7 -47 -6 -77 33 l-32 40 53 26 c29 14 64 37 77 51 l24 26 -55
-26 c-190 -87 -428 -87 -618 0 l-55 26 24 -26 c13 -14 48 -37 77 -51 l53 -26
-32 -40 c-30 -39 -32 -40 -77 -33 -64 9 -158 54 -205 98 l-39 37 7 93 c3 50
15 130 26 177 19 79 81 261 98 286 13 20 90 63 149 83 58 20 133 28 133 14z"/>
<path d="M754 1056 c-58 -58 -42 -141 33 -172 30 -13 38 -13 67 1 101 48 66
205 -46 205 -11 0 -35 -15 -54 -34z"/>
<path d="M1120 1073 c-39 -27 -49 -45 -50 -90 0 -95 101 -142 162 -74 78 87
-19 228 -112 164z"/>
</g>
</svg>