<svg xmlns="http://www.w3.org/2000/svg" xmlns:xlink="http://www.w3.org/1999/xlink" fill="none" version="1.1" width="50.6201171875" height="41.130001068115234" viewBox="0 0 50.6201171875 41.130001068115234"><g style="mix-blend-mode:passthrough"><path d="M30.8401,0L46.6701,0C48.8516,0,50.6201,1.76848,50.6201,3.95L50.6201,3.96C50.6201,6.14152,48.8516,7.91,46.6701,7.91L30.8401,7.91C28.6586,7.91,26.8901,6.14152,26.8901,3.96L26.8901,3.95C26.8901,1.76848,28.6586,0,30.8401,0ZM30.8401,11.07L46.6701,11.07C48.8516,11.07,50.6201,12.8385,50.6201,15.02L50.6201,15.03C50.6201,17.2115,48.8516,18.98,46.6701,18.98L30.8401,18.98C28.6586,18.98,26.8901,17.2115,26.8901,15.03L26.8901,15.02C26.8901,12.8385,28.6586,11.07,30.8401,11.07ZM3.95,22.14L19.78,22.14C21.9615,22.14,23.73,23.9085,23.73,26.09L23.73,26.1C23.73,28.2815,21.9615,30.05,19.78,30.05L3.95,30.05C1.76848,30.05,0,28.2815,0,26.1L0,26.09C0,23.9085,1.76848,22.14,3.95,22.14ZM46.6701,22.14L30.8401,22.14C28.6586,22.14,26.8901,23.9085,26.8901,26.09L26.8901,26.1C26.8901,28.2815,28.6586,30.05,30.8401,30.05L46.6701,30.05C48.8516,30.05,50.6201,28.2815,50.6201,26.1L50.6201,26.09C50.6201,23.9085,48.8516,22.14,46.6701,22.14ZM3.95,33.22L19.78,33.22C21.9615,33.22,23.73,34.9885,23.73,37.17L23.73,37.18C23.73,39.3615,21.9615,41.13,19.78,41.13L3.95,41.13C1.76848,41.13,0,39.3615,0,37.18L0,37.17C0,34.9885,1.76848,33.22,3.95,33.22ZM46.6701,33.22L30.8401,33.22C28.6586,33.22,26.8901,34.9885,26.8901,37.17L26.8901,37.18C26.8901,39.3615,28.6586,41.13,30.8401,41.13L46.6701,41.13C48.8516,41.13,50.6201,39.3615,50.6201,37.18L50.6201,37.17C50.6201,34.9885,48.8516,33.22,46.6701,33.22Z" fill-rule="evenodd" fill="#48A8FF" fill-opacity="1"/></g></svg>