<svg xmlns="http://www.w3.org/2000/svg" xmlns:xlink="http://www.w3.org/1999/xlink" fill="none" version="1.1" width="170" height="41.1300048828125" viewBox="0 0 170 41.1300048828125"><g style="mix-blend-mode:passthrough"><g style="mix-blend-mode:passthrough"><path d="M30.8401,0L46.6701,0C48.8516,0,50.6201,1.76848,50.6201,3.95L50.6201,3.96C50.6201,6.14152,48.8516,7.91,46.6701,7.91L30.8401,7.91C28.6586,7.91,26.8901,6.14152,26.8901,3.96L26.8901,3.95C26.8901,1.76848,28.6586,0,30.8401,0ZM30.8401,11.07L46.6701,11.07C48.8516,11.07,50.6201,12.8385,50.6201,15.02L50.6201,15.03C50.6201,17.2115,48.8516,18.98,46.6701,18.98L30.8401,18.98C28.6586,18.98,26.8901,17.2115,26.8901,15.03L26.8901,15.02C26.8901,12.8385,28.6586,11.07,30.8401,11.07ZM3.95,22.14L19.78,22.14C21.9615,22.14,23.73,23.9085,23.73,26.09L23.73,26.1C23.73,28.2815,21.9615,30.05,19.78,30.05L3.95,30.05C1.76848,30.05,0,28.2815,0,26.1L0,26.09C0,23.9085,1.76848,22.14,3.95,22.14ZM46.6701,22.14L30.8401,22.14C28.6586,22.14,26.8901,23.9085,26.8901,26.09L26.8901,26.1C26.8901,28.2815,28.6586,30.05,30.8401,30.05L46.6701,30.05C48.8516,30.05,50.6201,28.2815,50.6201,26.1L50.6201,26.09C50.6201,23.9085,48.8516,22.14,46.6701,22.14ZM3.95,33.22L19.78,33.22C21.9615,33.22,23.73,34.9885,23.73,37.17L23.73,37.18C23.73,39.3615,21.9615,41.13,19.78,41.13L3.95,41.13C1.76848,41.13,0,39.3615,0,37.18L0,37.17C0,34.9885,1.76848,33.22,3.95,33.22ZM46.6701,33.22L30.8401,33.22C28.6586,33.22,26.8901,34.9885,26.8901,37.17L26.8901,37.18C26.8901,39.3615,28.6586,41.13,30.8401,41.13L46.6701,41.13C48.8516,41.13,50.6201,39.3615,50.6201,37.18L50.6201,37.17C50.6201,34.9885,48.8516,33.22,46.6701,33.22Z" fill-rule="evenodd" fill="#48A8FF" fill-opacity="1"/></g><g style="mix-blend-mode:passthrough"><path d="M118.63183244628905,39.9964C116.03473244628907,40.0338,113.47133244628907,39.4044,111.18683244628906,38.1684C109.02833244628906,36.9881,107.21973244628907,35.2589,105.94383244628906,33.1554C104.67583244628906,30.9849,104.02343244628906,28.5099,104.05683244628906,25.9964C104.01543244628905,23.4835,104.66843244628906,21.0079,105.94383244628906,18.8424C107.22023244628906,16.7393,109.02873244628907,15.0102,111.18683244628906,13.8294C113.46093244628906,12.5614,116.02843244628906,11.9134,118.63183244628905,11.9504C121.21933244628906,11.9086,123.77133244628907,12.5572,126.02483244628905,13.8294C128.17493244628906,15.0022,129.96813244628908,16.7343,131.21483244628905,18.8424C132.52283244628907,20.9965,133.19533244628906,23.4765,133.15483244628905,25.9964C133.17513244628907,28.4799,132.52293244628908,30.9226,131.26743244628906,33.0655C130.01203244628906,35.2084,128.20013244628905,36.9717,126.02383244628906,38.1684C123.75683244628905,39.4001,121.21163244628906,40.0295,118.63183244628905,39.9964C118.63183244628905,39.9964,118.63183244628905,39.9964,118.63183244628905,39.9964ZM118.63183244628905,19.0034C117.42913244628906,18.98,116.24543244628907,19.3066,115.22483244628907,19.9434C114.28353244628906,20.5707,113.52463244628906,21.4355,113.02483244628905,22.4504C112.49153244628906,23.5391,112.22223244628907,24.7382,112.23883244628905,25.9504C112.21943244628906,27.1775,112.48823244628906,28.3921,113.02383244628906,29.4964C113.52383244628906,30.5111,114.28273244628906,31.3759,115.22383244628907,32.0034C116.24443244628907,32.6402,117.42813244628906,32.9668,118.63083244628906,32.9434C119.81823244628906,32.9717,120.98693244628906,32.6443,121.98683244628907,32.0034C122.92833244628906,31.3762,123.68733244628906,30.5114,124.18683244628906,29.4964C124.72393244628907,28.3908,124.99353244628907,27.1744,124.97383244628907,25.9454C124.99023244628907,24.7331,124.72053244628907,23.534,124.18683244628906,22.4454C123.68753244628905,21.4303,122.92853244628907,20.5653,121.98683244628907,19.9384C120.98663244628906,19.2994,119.81833244628906,18.9738,118.63183244628905,19.0034C118.63183244628905,19.0034,118.63183244628905,19.0034,118.63183244628905,19.0034C118.63183244628905,19.0034,118.63183244628905,19.0034,118.63183244628905,19.0034ZM85.04083244628906,39.9964C82.96633244628906,40.029,80.90383244628906,39.675,78.95887244628906,38.9524C77.26354244628907,38.2882,75.72742244628907,37.2737,74.45086244628907,35.9754C73.21411244628906,34.6255,72.25370244628907,33.0464,71.62386244628907,31.3274C70.94530744628906,29.4697,70.60657704628906,27.505,70.62386190628906,25.5274C70.56865744628907,23.0626,71.12707044628907,20.6228,72.24886244628907,18.4274C73.31761244628906,16.4645,74.89250244628906,14.8237,76.80986244628906,13.6754C78.84775244628906,12.4995,81.16853244628906,11.9036,83.52083244628906,11.9524C84.54903244628906,11.9452,85.57283244628906,12.086,86.56083244628906,12.3704C87.50163244628907,12.6309,88.38923244628907,13.0551,89.18283244628907,13.6234C89.95873244628906,14.1202,90.63463244628906,14.7578,91.17583244628906,15.5034C91.17583244628906,15.5034,91.33283244628906,15.5034,91.33283244628906,15.5034C91.33283244628906,15.5034,91.33283244628906,1.24938,91.33283244628906,1.24938C91.33283244628906,1.24938,99.45983244628906,1.24938,99.45983244628906,1.24938C99.45983244628906,1.24938,99.45983244628906,25.4794,99.45983244628906,25.4794C99.51753244628907,28.147,98.90443244628906,30.7863,97.67683244628907,33.1554C96.53213244628907,35.3007,94.78183244628906,37.062,92.64383244628907,38.2204C90.29973244628906,39.4436,87.68433244628906,40.0545,85.04083244628906,39.9964C85.04083244628906,39.9964,85.04083244628906,39.9964,85.04083244628906,39.9964ZM85.04083244628906,19.0564C83.88633244628906,19.0277,82.75103244628906,19.356,81.78983244628907,19.9964C80.86613244628906,20.6065,80.12374244628906,21.4542,79.64086244628906,22.4504C79.13811244628906,23.5653,78.88750244628906,24.7775,78.90686244628907,26.0004C78.89170244628906,27.239,79.14197244628906,28.4665,79.64086244628906,29.6004C80.13220244628906,30.6053,80.87183244628906,31.4682,81.78983244628907,32.1074C82.77453244628906,32.6878,83.89683244628907,32.994,85.03983244628907,32.994C86.18293244628906,32.994,87.30513244628906,32.6878,88.28983244628907,32.1074C89.22523244628906,31.4876,89.96933244628906,30.6195,90.43883244628907,29.6004C90.93813244628906,28.4667,91.18843244628906,27.2391,91.17283244628906,26.0004C91.19273244628906,24.7774,90.94213244628907,23.5652,90.43883244628907,22.4504C89.97803244628906,21.4404,89.23173244628906,20.5873,88.29183244628906,19.9964C87.33073244628906,19.356,86.19543244628906,19.0277,85.04083244628906,19.0564C85.04083244628906,19.0564,85.04083244628906,19.0564,85.04083244628906,19.0564C85.04083244628906,19.0564,85.04083244628906,19.0564,85.04083244628906,19.0564ZM169.62383244628904,39.3694C169.62383244628904,39.3694,161.96883244628907,39.3694,161.96883244628907,39.3694C160.91113244628906,39.4712,159.84403244628908,39.3392,158.84293244628907,38.9827C157.84193244628906,38.6263,156.93153244628905,38.0541,156.17613244628905,37.3068C155.42073244628907,36.5594,154.83893244628905,35.6552,154.47183244628906,34.658C154.10473244628906,33.6608,153.96133244628908,32.5951,154.05183244628907,31.5364C154.05183244628907,31.5364,154.05183244628907,19.2074,154.05183244628907,19.2074C154.05183244628907,19.2074,149.64383244628908,19.2074,149.64383244628908,19.2074C149.64383244628908,19.2074,149.64383244628908,12.5764,149.64383244628908,12.5764C149.64383244628908,12.5764,154.05083244628906,12.5764,154.05083244628906,12.5764C154.05083244628906,12.5764,154.05083244628906,6.05338,154.05083244628906,6.05338C154.05083244628906,6.05338,162.22983244628907,6.05338,162.22983244628907,6.05338C162.22983244628907,6.05338,162.22983244628907,12.5744,162.22983244628907,12.5744C162.22983244628907,12.5744,154.05083244628906,12.5744,154.05083244628906,12.5744C154.05083244628906,12.5744,154.05083244628906,19.2044,154.05083244628906,19.2044C154.05083244628906,19.2044,162.22983244628907,19.2044,162.22983244628907,19.2044C162.22983244628907,19.2044,162.22983244628907,12.5764,162.22983244628907,12.5764C162.22983244628907,12.5764,169.62383244628904,12.5764,169.62383244628904,12.5764C169.62383244628904,12.5764,169.62383244628904,19.2054,169.62383244628904,19.2054C169.62383244628904,19.2054,162.22983244628907,19.2054,162.22983244628907,19.2054C162.22983244628907,19.2054,162.22983244628907,31.0664,162.22983244628907,31.0664C162.22493244628907,31.4731,162.37513244628906,31.8664,162.64983244628905,32.1664C162.95093244628907,32.439,163.34373244628907,32.5882,163.74983244628908,32.5844C163.74983244628908,32.5844,169.62383244628904,32.5844,169.62383244628904,32.5844C169.62383244628904,32.5844,169.62383244628904,39.3724,169.62383244628904,39.3724C169.62383244628904,39.3724,169.62383244628904,39.3694,169.62383244628904,39.3694C169.62383244628904,39.3694,169.62383244628904,39.3694,169.62383244628904,39.3694ZM146.16383244628906,39.3694C146.16383244628906,39.3694,137.98383244628906,39.3694,137.98383244628906,39.3694C137.98383244628906,39.3694,137.98383244628906,12.5764,137.98383244628906,12.5764C137.98383244628906,12.5764,146.16383244628906,12.5764,146.16383244628906,12.5764C146.16383244628906,12.5764,146.16383244628906,39.3654,146.16383244628906,39.3654C146.16383244628906,39.3654,146.16383244628906,39.3694,146.16383244628906,39.3694C146.16383244628906,39.3694,146.16383244628906,39.3694,146.16383244628906,39.3694ZM142.07083244628905,9.55638C141.12863244628906,9.56621,140.20503244628907,9.29397,139.41883244628906,8.7747C138.63253244628908,8.25542,138.01953244628908,7.51283,137.65873244628906,6.6424C137.29783244628908,5.77198,137.20553244628906,4.81351,137.39383244628908,3.89024C137.58203244628908,2.96697,138.04213244628906,2.12109,138.71483244628905,1.46138C139.14373244628905,1.00034,139.66313244628907,0.632633,140.24043244628905,0.381199C140.81773244628906,0.129765,141.44063244628904,0,142.07033244628906,0C142.70003244628907,-7.10543e-15,143.32303244628906,0.129765,143.90033244628904,0.381199C144.47763244628908,0.632633,144.99693244628907,1.00034,145.42583244628906,1.46138C146.08383244628908,2.1267,146.53073244628905,2.97143,146.71063244628908,3.88967C146.89053244628906,4.80792,146.79533244628908,5.75884,146.43713244628907,6.62324C146.07883244628906,7.48764,145.47343244628905,8.22707,144.69673244628905,8.74885C143.92003244628904,9.27063,143.00653244628904,9.55154,142.07083244628905,9.55638C142.07083244628905,9.55638,142.07083244628905,9.55638,142.07083244628905,9.55638C142.07083244628905,9.55638,142.07083244628905,9.55638,142.07083244628905,9.55638Z" fill="#3A4060" fill-opacity="1"/></g></g></svg>